<?xml version="1.0" encoding="utf-8"?>
<!-- Generator: Adobe Illustrator 21.0.0, SVG Export Plug-In . SVG Version: 6.00 Build 0)  -->
<svg version="1.1" id="Layer_1" xmlns="http://www.w3.org/2000/svg" xmlns:xlink="http://www.w3.org/1999/xlink" x="0px" y="0px"
	 viewBox="0 0 114 16.3" style="enable-background:new 0 0 114 16.3;" xml:space="preserve">
<style type="text/css">
	.st0{fill:#ED1C24;}
	.st1{fill:#FFFFFF;}
</style>
<title>TE no XAsset 122</title>
<g id="Layer_2">
	<g id="Layer_1-2">
		<path class="st0" d="M4.3,16.3h4.7V4.9h4.3V0.9H0v3.9h4.3V16.3z M13.7,16.3h13v-3.9h-8.3v-1.9h7.3V6.8h-7.3V4.9h8V0.9H13.7V16.3z
			 M27.4,16.3h6.8c5.4,0,7.9-3,7.9-7.7c0-3.9-1.8-7.7-6.9-7.7h-7.8V16.3z M32.2,4.9h1.5c1.9-0.2,3.5,1.2,3.7,3c0,0.2,0,0.4,0,0.6
			c0,1.4-0.4,3.8-3.4,3.8h-1.9V4.9z"/>
		<polygon class="st0" points="43.1,8 45.7,8 47,5.8 48.2,8 50.9,8 48.3,4.2 50.7,0.7 48.2,0.7 47.1,2.7 46,0.7 43.3,0.7 45.7,4.2 
					"/>
		<path class="st1" d="M52.8,0h11.5v2h-9.4v4.8h8.7v1.8h-8.7V14h9.6v1.9H52.8V0z"/>
		<path class="st1" d="M68.2,4.3V12c0,0.5,0.1,1,0.3,1.4c0.4,0.7,1.1,1.1,1.9,1c1.2,0.1,2.3-0.7,2.7-1.8c0.3-0.9,0.4-1.8,0.4-2.7
			V4.3h1.9v11.6h-1.8v-1.7c-0.2,0.4-0.5,0.8-0.9,1.1c-0.7,0.6-1.7,0.9-2.6,0.9c-1.3,0.1-2.6-0.5-3.3-1.6c-0.4-0.7-0.5-1.6-0.5-2.4
			V4.3H68.2z"/>
		<path class="st1" d="M78.8,12.3c0,0.5,0.2,1.1,0.5,1.5c0.7,0.7,1.6,1,2.6,0.9c0.7,0,1.3-0.1,1.9-0.5c0.5-0.3,0.9-0.8,0.8-1.4
			c0-0.5-0.3-0.9-0.7-1.1c-0.5-0.2-1.1-0.4-1.7-0.6l-1.6-0.4c-0.8-0.2-1.5-0.4-2.2-0.8c-0.8-0.4-1.3-1.3-1.3-2.2c0-1,0.4-2,1.2-2.7
			c0.9-0.7,2.1-1.1,3.2-1c1.5-0.1,2.9,0.4,3.8,1.5c0.5,0.6,0.7,1.3,0.7,2.1h-1.8c0-0.4-0.2-0.8-0.5-1.2c-0.7-0.6-1.5-0.9-2.4-0.8
			c-0.6,0-1.2,0.1-1.7,0.4c-0.4,0.2-0.6,0.7-0.6,1.1c0,0.5,0.3,1,0.8,1.2c0.4,0.2,0.8,0.4,1.3,0.5l1.3,0.3c1,0.2,2,0.5,2.9,1
			c0.8,0.5,1.2,1.4,1.1,2.3c0,1-0.4,2-1.2,2.7c-1,0.8-2.3,1.2-3.6,1.1c-1.3,0.1-2.7-0.3-3.7-1.2c-0.7-0.8-1.1-1.8-1.2-2.9L78.8,12.3
			z"/>
		<path class="st1" d="M88.2,1.1h2v3.2h1.8v1.6h-1.9v7.6c0,0.3,0.1,0.6,0.4,0.8c0.2,0.1,0.5,0.1,0.8,0.1h0.3h0.4v1.6
			c-0.2,0.1-0.5,0.1-0.7,0.1c-0.3,0-0.5,0-0.8,0c-0.7,0.1-1.4-0.2-1.8-0.7c-0.3-0.5-0.5-1.2-0.5-1.8V5.9h-1.6V4.3h1.6V1.1z"/>
		<path class="st1" d="M101.5,5.5c1.1,1.2,1.7,2.8,1.5,4.4c0.1,1.6-0.4,3.3-1.3,4.6c-1,1.3-2.6,2-4.2,1.8c-1.4,0.1-2.8-0.5-3.8-1.6
			c-1-1.2-1.5-2.8-1.4-4.3c-0.1-1.7,0.4-3.3,1.5-4.7c1-1.2,2.5-1.8,4-1.7C99.2,3.9,100.5,4.5,101.5,5.5z M100.3,13.2
			c0.5-1,0.7-2.1,0.7-3.3c0-0.9-0.1-1.8-0.5-2.6c-0.5-1.1-1.6-1.7-2.8-1.6c-1-0.1-2,0.5-2.5,1.3c-0.6,1-0.8,2.1-0.8,3.3
			c0,1.1,0.2,2.2,0.8,3.1c0.6,0.8,1.5,1.3,2.6,1.2C98.8,14.7,99.8,14.1,100.3,13.2z"/>
		<path class="st1" d="M104.6,4.3h1.8v1.6c0.5-0.6,1.1-1.1,1.7-1.5c0.6-0.3,1.3-0.4,2-0.4c1.4-0.2,2.7,0.5,3.3,1.7
			c0.4,0.8,0.6,1.8,0.5,2.7v7.4h-2V8.6c0-0.6-0.1-1.2-0.3-1.7c-0.3-0.7-1.1-1.1-1.9-1.1c-0.4,0-0.8,0-1.1,0.1
			c-0.6,0.2-1.1,0.5-1.4,1c-0.3,0.3-0.5,0.7-0.6,1.2c-0.1,0.6-0.2,1.2-0.2,1.8v6.1h-1.9L104.6,4.3z"/>
	</g>
</g>
</svg>
