<svg xmlns="http://www.w3.org/2000/svg" viewBox="0 0 114 16.34"><title>TE no XAsset 122</title><g id="Layer_2" data-name="Layer 2"><g id="Layer_1-2" data-name="Layer 1"><path d="M4.31,16.34H9.05V4.89h4.31V.95H0V4.89H4.31V16.34Zm9.36,0h13V12.39H18.41V10.47h7.26V6.81H18.41V4.89h8V.95H13.67V16.34Zm13.74,0h6.85c5.37,0,7.87-3,7.87-7.71,0-3.88-1.81-7.67-6.94-7.67H27.41V16.34ZM32.15,4.89h1.51a3.4,3.4,0,0,1,3.73,3.66c0,1.44-.43,3.84-3.38,3.84H32.15Z" style="fill:#ed1c24;fill-rule:evenodd"/><polygon points="43.1 8.03 45.68 8.03 46.97 5.85 48.22 8.03 50.94 8.03 48.33 4.16 50.67 0.71 48.17 0.71 47.09 2.71 45.98 0.71 43.34 0.71 45.74 4.15 43.1 8.03" style="fill:#ed1c24;fill-rule:evenodd"/><path d="M52.8,0H64.33V1.95H54.9V6.77h8.72V8.61H54.9V14h9.59v1.89H52.8Z"/><path d="M68.17,4.3V12a3.31,3.31,0,0,0,.27,1.45,1.9,1.9,0,0,0,1.89,1A2.67,2.67,0,0,0,73,12.67,7.4,7.4,0,0,0,73.42,10V4.3h1.95V15.89H73.53l0-1.71a3.92,3.92,0,0,1-.92,1.11A4,4,0,0,1,70,16.2a3.41,3.41,0,0,1-3.31-1.65,5,5,0,0,1-.48-2.37V4.3Z"/><path d="M78.82,12.26a2.79,2.79,0,0,0,.5,1.49,3.16,3.16,0,0,0,2.61.94,3.91,3.91,0,0,0,1.94-.47,1.56,1.56,0,0,0,.84-1.45A1.24,1.24,0,0,0,84,11.63a8.09,8.09,0,0,0-1.69-.55l-1.57-.39a7.79,7.79,0,0,1-2.22-.82,2.45,2.45,0,0,1-1.28-2.19A3.32,3.32,0,0,1,78.47,5,4.83,4.83,0,0,1,81.7,4a4.51,4.51,0,0,1,3.83,1.54,3.31,3.31,0,0,1,.71,2.1H84.4a2.21,2.21,0,0,0-.48-1.19,3.09,3.09,0,0,0-2.38-.76,2.91,2.91,0,0,0-1.71.42,1.31,1.31,0,0,0-.58,1.11A1.36,1.36,0,0,0,80,8.42a4.66,4.66,0,0,0,1.3.48l1.31.31a10.25,10.25,0,0,1,2.87,1,2.61,2.61,0,0,1,1.14,2.35,3.56,3.56,0,0,1-1.19,2.67,5.1,5.1,0,0,1-3.62,1.13,4.89,4.89,0,0,1-3.71-1.17,4.41,4.41,0,0,1-1.17-2.9Z"/><path d="M88.24,1.07h2V4.3h1.85V5.9H90.21v7.56a.82.82,0,0,0,.41.81,1.74,1.74,0,0,0,.76.12h.3l.38,0v1.55a4.45,4.45,0,0,1-.7.14,6.5,6.5,0,0,1-.78,0,2.11,2.11,0,0,1-1.85-.7,3.1,3.1,0,0,1-.49-1.81V5.9H86.67V4.3h1.57Z"/><path d="M101.52,5.46a5.85,5.85,0,0,1,1.54,4.39,7.57,7.57,0,0,1-1.35,4.63,4.88,4.88,0,0,1-4.2,1.83,4.73,4.73,0,0,1-3.77-1.61,6.41,6.41,0,0,1-1.4-4.34A6.93,6.93,0,0,1,93.8,5.7a4.93,4.93,0,0,1,4-1.73A5.19,5.19,0,0,1,101.52,5.46Zm-1.21,7.7A7.36,7.36,0,0,0,101,9.9a5.85,5.85,0,0,0-.51-2.64,2.88,2.88,0,0,0-2.8-1.6A2.76,2.76,0,0,0,95.14,7a6.36,6.36,0,0,0-.8,3.28,5.53,5.53,0,0,0,.8,3.08,2.82,2.82,0,0,0,2.55,1.23A2.65,2.65,0,0,0,100.31,13.16Z"/><path d="M104.56,4.3h1.85V5.95a5.2,5.2,0,0,1,1.74-1.46,4.65,4.65,0,0,1,2-.44,3.38,3.38,0,0,1,3.33,1.72A6.11,6.11,0,0,1,114,8.46v7.43h-2V8.59a3.93,3.93,0,0,0-.31-1.71,1.9,1.9,0,0,0-1.88-1.08,3.81,3.81,0,0,0-1.14.14,2.91,2.91,0,0,0-1.41,1,2.87,2.87,0,0,0-.63,1.18,8,8,0,0,0-.15,1.75v6.07h-1.95Z"/></g></g></svg>